<svg xmlns="http://www.w3.org/2000/svg" viewBox="0 0 320 72" role="img" aria-label="ShipFee">
  <defs>
    <linearGradient id="sfMarkBg" x1="18%" y1="0%" x2="82%" y2="100%">
      <stop offset="0%" stop-color="#FB923C"/>
      <stop offset="45%" stop-color="#F97316"/>
      <stop offset="100%" stop-color="#EF4444"/>
    </linearGradient>
    <linearGradient id="sfWord" x1="0%" y1="0%" x2="0%" y2="100%">
      <stop offset="0%" stop-color="#FB923C"/>
      <stop offset="55%" stop-color="#F97316"/>
      <stop offset="100%" stop-color="#EA580C"/>
    </linearGradient>
  </defs>

  <!-- Mark: rounded square + white scooter -->
  <g transform="translate(0,4)">
    <rect width="64" height="64" rx="14" ry="14" fill="url(#sfMarkBg)"/>
    <g transform="translate(8,8) scale(0.09375)">
      <g fill="none" stroke="#FFFFFF" stroke-width="28" stroke-linecap="round" stroke-linejoin="round">
        <circle cx="148" cy="340" r="58"/>
        <circle cx="364" cy="340" r="58"/>
      </g>
      <g fill="#FFFFFF">
        <circle cx="148" cy="340" r="18"/>
        <circle cx="364" cy="340" r="18"/>
        <path d="M170 318h88l42-92h70a22 22 0 0 1 22 22v14a22 22 0 0 1-22 22h-48l-28 58a34 34 0 0 1-30 20H186a20 20 0 0 1-16-32z"/>
        <path d="M228 188a40 40 0 0 1 40-40h22a36 36 0 0 1 34 24l10 28H246a18 18 0 0 1-18-12z"/>
        <path d="M352 156h58a18 18 0 0 1 18 18v8a14 14 0 0 1-14 14h-40z"/>
        <rect x="360" y="196" width="24" height="72" rx="10"/>
        <circle cx="268" cy="128" r="26"/>
      </g>
    </g>
  </g>

  <!-- Wordmark -->
  <text
    x="80"
    y="50"
    fill="url(#sfWord)"
    font-family="Geist, Inter, system-ui, -apple-system, BlinkMacSystemFont, 'Segoe UI', sans-serif"
    font-size="42"
    font-weight="800"
    letter-spacing="-0.04em"
  >ShipFee</text>
</svg>
