<svg xmlns="http://www.w3.org/2000/svg" viewBox="0 0 512 512" role="img" aria-label="ShipFee">
  <defs>
    <linearGradient id="bg" x1="18%" y1="0%" x2="82%" y2="100%">
      <stop offset="0%" stop-color="#FB923C"/>
      <stop offset="50%" stop-color="#F97316"/>
      <stop offset="100%" stop-color="#EF4444"/>
    </linearGradient>
  </defs>
  <rect width="512" height="512" rx="108" ry="108" fill="url(#bg)"/>
  <g fill="none" stroke="#FFFFFF" stroke-width="28" stroke-linecap="round" stroke-linejoin="round">
    <!-- wheels -->
    <circle cx="148" cy="340" r="58"/>
    <circle cx="364" cy="340" r="58"/>
  </g>
  <g fill="#FFFFFF">
    <circle cx="148" cy="340" r="18"/>
    <circle cx="364" cy="340" r="18"/>
    <!-- chassis -->
    <path d="M170 318h88l42-92h70a22 22 0 0 1 22 22v14a22 22 0 0 1-22 22h-48l-28 58a34 34 0 0 1-30 20H186a20 20 0 0 1-16-32z"/>
    <!-- seat / tank -->
    <path d="M228 188a40 40 0 0 1 40-40h22a36 36 0 0 1 34 24l10 28H246a18 18 0 0 1-18-12z"/>
    <!-- handlebar -->
    <path d="M352 156h58a18 18 0 0 1 18 18v8a14 14 0 0 1-14 14h-40z"/>
    <!-- fork -->
    <rect x="360" y="196" width="24" height="72" rx="10"/>
    <!-- rider head -->
    <circle cx="268" cy="128" r="26"/>
  </g>
</svg>
